# xmcd CD database file
#
# Track frame offsets:
#	150
#	11352
#	27504
#	40971
#	50836
#	61074
#	74160
#	89241
#	97372
#	105532
#	121513
#	132299
#	169671
#	176819
#
# Disc length: 2613 seconds
#
# Revision: 0
# Processed by: cddbd v1.5.1PL0 Copyright (c) Steve Scherf et al.
# Submitted via: CDex 1.51
#
DISCID=cb0a330e
DTITLE=Femmes Vocales - Reflections
DYEAR=2002
DGENRE=Jazz
TTITLE0=Towanda
TTITLE1=Let the sunshine in
TTITLE2=Don't worry, be happy
TTITLE3=Big Spender
TTITLE4=Diamonds are a girls best friend
TTITLE5=Operator
TTITLE6=Can't help lovin' that man
TTITLE7=Jamaica farewell
TTITLE8=Sto mi e milo
TTITLE9=Senzenina
TTITLE10=Ayangena
TTITLE11=Conference of the birds
TTITLE12=Keep your lamps
TTITLE13=Gituschka
EXTD=YEAR: 2002
EXTT0=
EXTT1=
EXTT2=
EXTT3=
EXTT4=
EXTT5=
EXTT6=
EXTT7=
EXTT8=
EXTT9=
EXTT10=
EXTT11=
EXTT12=
EXTT13=
PLAYORDER=
